PathFileType	4	(X/Y/Z)	C:/Users/opensim2020/Desktop/walking_exp_matlab/subject06_walking22_straight_04.trc	
DataRate	CameraRate	NumFrames	NumMarkers	Units	OrigDataRate	OrigDataStartFrame	OrigNumFrames	
100.00	100.00	5	44	mm	100.00	2213	102	
Frame#	Time	LFHD			RFHD			LBHD			RBHD			C7			T10			CLAV			STRN			RBAK			LSHO			LUPA			LELB			LFRM			LWRA			LWRB			LFIN			RSHO			RUPA			RELB			RFRM			RWRA			RWRB			RFIN			LASI			RASI			LPSI			RPSI			LTHI			LKNE			LTIB			LANK			LHEE			LTOE			RTHI			RKNE			RTIB			RANK			RHEE			RTOE			*39			*40			*41			*42			*43			
		X1	Y1	Z1	X2	Y2	Z2	X3	Y3	Z3	X4	Y4	Z4	X5	Y5	Z5	X6	Y6	Z6	X7	Y7	Z7	X8	Y8	Z8	X9	Y9	Z9	X10	Y10	Z10	X11	Y11	Z11	X12	Y12	Z12	X13	Y13	Z13	X14	Y14	Z14	X15	Y15	Z15	X16	Y16	Z16	X17	Y17	Z17	X18	Y18	Z18	X19	Y19	Z19	X20	Y20	Z20	X21	Y21	Z21	X22	Y22	Z22	X23	Y23	Z23	X24	Y24	Z24	X25	Y25	Z25	X26	Y26	Z26	X27	Y27	Z27	X28	Y28	Z28	X29	Y29	Z29	X30	Y30	Z30	X31	Y31	Z31	X32	Y32	Z32	X33	Y33	Z33	X34	Y34	Z34	X35	Y35	Z35	X36	Y36	Z36	X37	Y37	Z37	X38	Y38	Z38	X39	Y39	Z39	X40	Y40	Z40	X41	Y41	Z41	X42	Y42	Z42	X43	Y43	Z43	X44	Y44	Z44	

26	0.250	-873.82440	357.20029	1636.09534	-1006.04529	346.72644	1637.85217	-890.08392	492.78766	1591.37976	-1018.51062	480.40302	1597.60828	-947.92621	495.14114	1436.41650	-963.81787	540.18433	1107.60205	-957.87878	387.06595	1355.53894	-963.10071	352.92242	1179.76624	-1028.92261	579.09827	1271.57666	-791.46368	428.30426	1381.52600	-722.64587	464.17517	1181.33948	-713.71265	498.76181	1073.66040	-694.15991	512.51990	923.98700	-738.58936	487.75464	798.22369	-697.99030	545.12134	809.32532	-702.24518	530.48279	718.87701	-1114.39075	442.16830	1394.36292	-1215.13049	493.98380	1207.72522	-1238.24500	485.72974	1088.38269	-1255.06104	437.04773	981.16150	-1215.52161	334.99182	876.52209	-1258.45007	382.97357	855.75208	-1255.46008	319.29236	801.14716	-876.42627	347.36716	955.89014	-1093.28650	383.28064	946.37909	-882.33112	510.69131	976.30029	-1048.32886	529.30078	965.79883	-808.38086	352.22980	646.22424	-840.76501	308.93671	491.30127	-848.69550	333.46692	233.99915	-893.16052	342.06036	63.84322	-936.95746	384.02026	50.76943	-902.00861	199.36339	37.23747	-1151.58411	420.78537	606.44037	-1147.24536	396.77856	481.61185	-1120.36157	589.61902	324.02649	-1060.37683	740.81128	228.48618	-1009.92432	773.30194	247.63515	-1066.87903	702.05048	74.98639	-936.82349	449.35999	1686.53857												 
27	0.260	-873.65607	341.85037	1638.04932	-1005.86121	331.39438	1639.88977	-889.95563	477.74142	1593.86157	-1018.49976	465.47775	1600.11621	-947.69958	480.52853	1438.99768	-963.13928	526.43658	1110.30664	-957.77460	372.68515	1357.70776	-962.68781	339.06497	1181.91846	-1028.07959	565.13361	1274.42419	-791.37390	413.34637	1383.98633	-722.61487	445.27835	1182.81677	-713.39044	477.40015	1074.53687	-693.27679	487.62225	924.64807	-738.30548	460.58981	799.28949	-696.56207	518.16901	809.40930	-700.53271	501.31607	719.39069	-1114.16296	428.00119	1396.46375	-1213.93164	481.86545	1209.87549	-1236.50732	474.99667	1089.87024	-1253.74780	430.42795	980.45392	-1215.74158	332.35757	871.45764	-1257.83386	381.74554	852.56299	-1256.09204	320.41022	795.57709	-875.68311	333.85291	957.85022	-1092.88696	369.79529	949.46448	-881.78467	497.03668	978.50262	-1047.54797	515.60095	968.43207	-808.72473	342.29456	647.31757	-840.87482	302.54135	491.24585	-848.83148	331.72879	234.16269	-893.33636	341.72513	64.17157	-937.07202	384.11212	50.89523	-902.17505	199.33159	37.18607	-1150.19592	399.44858	609.35150	-1145.24939	371.27310	485.72626	-1119.81897	559.38104	323.14569	-1060.07361	709.48773	223.97139	-1009.90289	743.95599	241.63858	-1066.35974	662.22968	74.19254	-936.54102	433.87582	1688.81555												 
28	0.270	-873.57886	326.51288	1639.92896	-1005.77234	316.09454	1641.73096	-889.90393	462.56003	1596.37012	-1018.49219	450.36191	1602.62549	-947.46442	465.98468	1441.25806	-962.46027	512.70685	1112.87402	-957.65240	358.57474	1359.79688	-962.33954	325.27200	1184.09570	-1027.32617	551.25336	1277.13916	-791.35950	398.81415	1386.53186	-722.66559	426.64340	1184.69873	-713.32520	455.28305	1075.68030	-692.74445	462.34811	925.64258	-738.11987	433.50473	800.86572	-695.39111	490.37735	809.86469	-698.84985	471.48080	720.38300	-1113.89734	414.14047	1398.65271	-1212.63049	469.62369	1212.03528	-1234.62109	464.19846	1091.53906	-1252.48022	423.96707	980.08832	-1215.98633	330.29117	866.60822	-1257.50757	381.10138	849.97534	-1256.54248	322.26718	790.36975	-875.01892	320.34750	959.63361	-1092.34875	356.03168	952.53998	-881.24121	483.30212	980.73199	-1046.82275	501.72736	971.21564	-808.95746	332.43741	648.28235	-840.94678	296.39365	491.00336	-848.65607	329.86053	234.19928	-893.47083	341.71875	64.32427	-937.11987	384.21826	50.94326	-902.28925	199.33588	37.15928	-1149.02942	378.37897	612.75922	-1143.21155	346.16437	490.17270	-1118.46594	530.38440	322.03464	-1059.76855	677.73993	218.42953	-1009.65814	714.07825	233.82169	-1066.64661	621.05725	72.88041	-936.44666	418.40131	1691.18872												 
29	0.280	-873.60846	311.25281	1641.61523	-1005.83905	300.78293	1643.35486	-889.96765	447.46893	1598.87805	-1018.33856	434.94763	1605.02454	-947.35516	451.84982	1443.47559	-961.80640	498.90030	1115.29224	-957.54028	344.48566	1361.84399	-961.99036	311.52893	1186.16370	-1026.63196	537.45569	1279.70361	-791.35675	384.47934	1389.24658	-722.65930	408.47751	1186.75562	-713.01581	433.88275	1077.08325	-692.27228	437.02313	927.00732	-737.95984	406.41681	802.76270	-694.35620	462.21347	810.52399	-697.29974	440.90128	721.78204	-1113.59302	400.49405	1400.78113	-1211.39014	457.29205	1214.17065	-1232.65649	453.47128	1093.30627	-1251.25891	417.66559	980.03497	-1216.21875	328.94763	862.03088	-1257.26086	380.84503	847.87708	-1256.75708	324.83417	785.40869	-874.13965	306.25940	961.46558	-1091.79382	342.47552	955.44733	-880.74792	469.76044	983.02631	-1046.20630	487.73569	974.05145	-809.09534	322.92874	648.94550	-840.97552	290.53867	490.63495	-848.29309	327.77869	234.22739	-893.54980	341.77878	64.42195	-937.08624	384.39249	51.02497	-902.35376	199.38762	37.09627	-1148.11267	357.64816	616.54663	-1141.22070	321.36816	494.75058	-1117.28979	500.81415	320.82327	-1059.52063	645.21960	211.81084	-1009.51050	683.30682	224.42326	-1067.61255	578.64642	71.53301	-936.50720	402.75446	1693.46582												 
30	0.290	-873.79718	295.99500	1643.22937	-1006.07361	285.43387	1644.79041	-890.19141	432.53787	1601.47522	-1018.50970	419.89227	1607.41064	-947.29230	437.85742	1445.49133	-961.15198	485.08066	1117.55933	-957.43793	330.53284	1363.80176	-961.71100	297.72049	1188.20752	-1026.02661	523.81732	1282.01257	-791.41595	370.50934	1391.85522	-722.48291	390.71295	1188.93689	-712.37714	413.26227	1078.68018	-691.82965	411.68387	928.64124	-737.86078	378.17017	805.15234	-693.78558	433.39902	811.54211	-695.97046	409.72842	723.60718	-1113.36560	387.05179	1402.79126	-1210.25586	444.92474	1216.18909	-1230.83838	442.98819	1095.13306	-1250.09644	411.72714	980.27332	-1216.35168	328.03842	857.84296	-1257.22510	380.75629	846.34204	-1257.26038	328.00601	781.24091	-873.73596	293.12827	962.89545	-1091.02283	329.36343	957.90851	-880.22620	455.73740	985.12195	-1045.76099	473.66599	976.81305	-809.26569	313.81613	649.33496	-840.81915	284.96191	490.13339	-847.81915	325.56967	234.12413	-893.59229	341.74695	64.51192	-937.45880	384.18030	50.97195	-902.32788	199.40123	37.01853	-1147.17944	336.99475	620.34045	-1138.93066	297.19241	499.42267	-1115.98718	471.81058	319.77991	-1059.47156	611.75897	204.28841	-1009.58063	651.35419	213.91661	-1069.17419	535.66235	69.99860	-936.88068	387.10019	1695.64465												 
